<svg width="16" height="16" viewBox="0 0 16 16" fill="none" xmlns="http://www.w3.org/2000/svg">
<path d="M14.1334 1.6001H1.86668C1.71933 1.6001 1.60004 1.71939 1.60004 1.86674V14.1334C1.60004 14.2807 1.71933 14.4 1.86668 14.4H14.1333C14.2807 14.4 14.4 14.2807 14.4 14.1334V1.86674C14.4 1.71947 14.2807 1.6001 14.1334 1.6001ZM13.8668 13.8667H13.8667H2.1334V2.13346H13.8668V13.8667Z" fill="#112F41" fill-opacity="0.6"/>
<path d="M1.86668 0C1.71933 0 1.60004 0.119297 1.60004 0.266641V1.06664C1.60004 1.21398 1.71933 1.33328 1.86668 1.33328C2.01402 1.33328 2.13332 1.21398 2.13332 1.06664V0.266719C2.13339 0.119297 2.01402 0 1.86668 0Z" fill="#112F41" fill-opacity="0.6"/>
<path d="M1.06664 1.6001H0.266641C0.119297 1.6001 0 1.71947 0 1.86674C0 2.014 0.119297 2.13338 0.266641 2.13338H1.06664C1.21398 2.13338 1.33328 2.01408 1.33328 1.86674C1.33328 1.71939 1.21398 1.6001 1.06664 1.6001Z" fill="#112F41" fill-opacity="0.6"/>
<path d="M1.06664 13.8667H0.266641C0.119297 13.8667 0 13.986 0 14.1333C0 14.2807 0.119297 14.4 0.266641 14.4H1.06664C1.21398 14.4 1.33328 14.2807 1.33328 14.1333C1.33328 13.986 1.21398 13.8667 1.06664 13.8667Z" fill="#112F41" fill-opacity="0.6"/>
<path d="M1.86668 14.6665C1.71933 14.6665 1.60004 14.7859 1.60004 14.9331V15.7331C1.60004 15.8805 1.71933 15.9998 1.86668 15.9998C2.01402 15.9998 2.13332 15.8805 2.13332 15.7331V14.9331C2.13339 14.7859 2.01402 14.6665 1.86668 14.6665Z" fill="#112F41" fill-opacity="0.6"/>
<path d="M14.1333 14.6665C13.986 14.6665 13.8667 14.7859 13.8667 14.9331V15.7331C13.8667 15.8805 13.986 15.9998 14.1333 15.9998C14.2807 15.9998 14.4 15.8805 14.4 15.7331V14.9331C14.4 14.7859 14.2807 14.6665 14.1333 14.6665Z" fill="#112F41" fill-opacity="0.6"/>
<path d="M15.7333 13.8667H14.9333C14.786 13.8667 14.6667 13.986 14.6667 14.1333C14.6667 14.2807 14.7861 14.4 14.9333 14.4H15.7333C15.8807 14.4 16 14.2807 16 14.1333C16 13.986 15.8807 13.8667 15.7333 13.8667Z" fill="#112F41" fill-opacity="0.6"/>
<path d="M15.7333 1.6001H14.9333C14.786 1.6001 14.6667 1.71939 14.6667 1.86674C14.6667 2.01408 14.7861 2.13338 14.9333 2.13338H15.7333C15.8807 2.13338 16 2.01408 16 1.86674C16 1.71939 15.8807 1.6001 15.7333 1.6001Z" fill="#112F41" fill-opacity="0.6"/>
<path d="M14.1333 0C13.986 0 13.8667 0.119297 13.8667 0.266641V1.06664C13.8667 1.21398 13.986 1.33328 14.1333 1.33328C14.2807 1.33328 14.4 1.21398 14.4 1.06664V0.266719C14.4 0.119297 14.2807 0 14.1333 0Z" fill="#112F41" fill-opacity="0.6"/>
</svg>
