<svg width="16" height="16" viewBox="0 0 16 16" fill="none" xmlns="http://www.w3.org/2000/svg">
<path d="M13.7574 0H2.24301C2.05065 0 1.89453 0.156118 1.89453 0.348478V15.6515C1.89453 15.8439 2.05065 16 2.24301 16H5.61889C5.81124 16 5.96736 15.8439 5.96736 15.6515V12.8787H10.0329V15.6515C10.0329 15.8439 10.189 16 10.3814 16H13.7572C13.9496 16 14.1057 15.8439 14.1057 15.6515V0.348478C14.1059 0.155944 13.9496 0 13.7574 0ZM5.74956 10.2796C5.74956 10.424 5.63265 10.5409 5.48821 10.5409H3.93452C3.79007 10.5409 3.67316 10.424 3.67316 10.2796V8.72588C3.67316 8.58144 3.79007 8.46452 3.93452 8.46452H5.48821C5.63265 8.46452 5.74956 8.58144 5.74956 8.72588V10.2796ZM5.74956 6.99081C5.74956 7.13525 5.63265 7.25217 5.48821 7.25217H3.93452C3.79007 7.25217 3.67316 7.13525 3.67316 6.99081V5.43712C3.67316 5.29268 3.79007 5.17576 3.93452 5.17576H5.48821C5.63265 5.17576 5.74956 5.29268 5.74956 5.43712V6.99081ZM5.74956 3.70205C5.74956 3.8465 5.63265 3.96341 5.48821 3.96341H3.93452C3.79007 3.96341 3.67316 3.8465 3.67316 3.70205V2.14836C3.67316 2.00392 3.79007 1.88701 3.93452 1.88701H5.48821C5.63265 1.88701 5.74956 2.00392 5.74956 2.14836V3.70205ZM9.03832 10.2796C9.03832 10.424 8.92141 10.5409 8.77696 10.5409H7.22328C7.07883 10.5409 6.96192 10.424 6.96192 10.2796V8.72588C6.96192 8.58144 7.07883 8.46452 7.22328 8.46452H8.77696C8.92141 8.46452 9.03832 8.58144 9.03832 8.72588V10.2796ZM9.03832 6.99081C9.03832 7.13525 8.92141 7.25217 8.77696 7.25217H7.22328C7.07883 7.25217 6.96192 7.13525 6.96192 6.99081V5.43712C6.96192 5.29268 7.07883 5.17576 7.22328 5.17576H8.77696C8.92141 5.17576 9.03832 5.29268 9.03832 5.43712V6.99081ZM9.03832 3.70205C9.03832 3.8465 8.92141 3.96341 8.77696 3.96341H7.22328C7.07883 3.96341 6.96192 3.8465 6.96192 3.70205V2.14836C6.96192 2.00392 7.07883 1.88701 7.22328 1.88701H8.77696C8.92141 1.88701 9.03832 2.00392 9.03832 2.14836V3.70205ZM12.3271 10.2796C12.3271 10.424 12.2102 10.5409 12.0657 10.5409H10.512C10.3676 10.5409 10.2507 10.424 10.2507 10.2796V8.72588C10.2507 8.58144 10.3676 8.46452 10.512 8.46452H12.0657C12.2102 8.46452 12.3271 8.58144 12.3271 8.72588V10.2796ZM12.3271 6.99081C12.3271 7.13525 12.2102 7.25217 12.0657 7.25217H10.512C10.3676 7.25217 10.2507 7.13525 10.2507 6.99081V5.43712C10.2507 5.29268 10.3676 5.17576 10.512 5.17576H12.0657C12.2102 5.17576 12.3271 5.29268 12.3271 5.43712V6.99081ZM12.3271 3.70205C12.3271 3.8465 12.2102 3.96341 12.0657 3.96341H10.512C10.3676 3.96341 10.2507 3.8465 10.2507 3.70205V2.14836C10.2507 2.00392 10.3676 1.88701 10.512 1.88701H12.0657C12.2102 1.88701 12.3271 2.00392 12.3271 2.14836V3.70205Z" fill="#112F41" fill-opacity="0.2"/>
</svg>
