<svg width="16" height="16" viewBox="0 0 16 16" fill="none" xmlns="http://www.w3.org/2000/svg">
<path d="M15 7.33374H1.66666V1.71374C1.66666 1.33374 2.02 1.0004 2.42331 1.0004H3.81666C4.21 1.0004 4.52666 1.3204 4.53 1.7104C3.88 1.87374 3.33334 2.47374 3.33334 3.10705V4.0004C3.33334 4.18374 3.48334 4.33374 3.66669 4.33374H6C6.18334 4.33374 6.33334 4.18374 6.33334 4.0004V3.10708C6.33334 2.46374 5.82334 1.87374 5.19669 1.71374C5.19669 0.95374 4.58003 0.33374 3.81669 0.33374H2.42334C1.65334 0.33374 1 0.967084 1 1.71374V7.33374C0.45 7.3304 0.00334375 7.77708 0 8.32708C0 8.61374 0.12 8.88374 0.333344 9.07374V10.8204C0.333344 12.1771 0.936688 13.3404 1.91334 14.0971L1.36669 15.1837C1.28334 15.3471 1.35003 15.5471 1.51669 15.6304C1.68003 15.7137 1.88003 15.647 1.96334 15.4804L2.47669 14.457C3.15003 14.817 3.90334 15.0037 4.66669 14.997H11.3333C12.0967 15.0037 12.85 14.817 13.5233 14.457L14.0367 15.4804C14.12 15.6437 14.32 15.7104 14.4833 15.6304C14.6467 15.5504 14.7133 15.347 14.6333 15.1837L14.0867 14.0937C15.0633 13.3404 15.6667 12.1737 15.6667 10.8171V9.0704C15.8767 8.88705 16 8.61705 16 8.33374C16 7.78043 15.5533 7.33374 15 7.33374ZM4.86334 2.33374C5.26 2.33374 5.66669 2.72374 5.66669 3.10708V3.66708H4V3.10708C4 2.73708 4.45 2.33374 4.86334 2.33374ZM15 10.8204C15 12.8238 13.4233 14.3338 11.3333 14.3338H4.66666C2.57666 14.3337 1 12.8237 1 10.8204V9.33377H15V10.8204ZM15 8.66708H1.01C0.843344 8.66708 0.693344 8.54708 0.67 8.38374C0.64 8.17708 0.8 8.0004 1 8.0004H14.99C15.1567 8.0004 15.3067 8.1204 15.33 8.28374C15.36 8.49043 15.2 8.66708 15 8.66708Z" fill="#112F41" fill-opacity="0.6"/>
</svg>
