<svg width="16" height="12" viewBox="0 0 16 12" fill="none" xmlns="http://www.w3.org/2000/svg">
<path d="M14.6667 5.03391V1.99991C14.6667 1.08125 13.9187 0.333252 13 0.333252H3C2.08134 0.333252 1.33334 1.08125 1.33334 1.99991V5.03391C0.574 5.18856 0 5.86191 0 6.66656V8.66656V9.99991V11.3333C0 11.5173 0.149344 11.6666 0.333344 11.6666C0.517344 11.6666 0.666687 11.5173 0.666687 11.3333V10.3333H15.3333V11.3333C15.3333 11.5173 15.4827 11.6666 15.6667 11.6666C15.8507 11.6666 16 11.5173 16 11.3333V9.99991V8.66656V6.66656C16 5.86191 15.426 5.18856 14.6667 5.03391ZM2 1.99991C2 1.44856 2.44866 0.999908 3 0.999908H13C13.5513 0.999908 14 1.44856 14 1.99991V4.99991H13.0827C13.148 4.81656 13.1647 4.61856 13.116 4.42391L12.7827 3.09056C12.6713 2.64456 12.272 2.33322 11.8127 2.33322H9.66666C9.11531 2.33322 8.66666 2.78188 8.66666 3.33322V4.66656C8.66666 4.78391 8.69066 4.89522 8.728 4.99991H7.272C7.30934 4.89525 7.33334 4.78391 7.33334 4.66656V3.33322C7.33334 2.78188 6.88469 2.33322 6.33334 2.33322H4.18734C3.728 2.33322 3.32869 2.64522 3.21734 3.09056L2.884 4.42391C2.83534 4.61856 2.852 4.81656 2.91734 4.99991H2V1.99991ZM12.4087 4.87191C12.3453 4.95325 12.2493 4.99991 12.146 4.99991H9.66666C9.48266 4.99991 9.33331 4.85056 9.33331 4.66656V3.33322C9.33331 3.14922 9.48266 2.99988 9.66666 2.99988H11.8127C11.966 2.99988 12.0987 3.10388 12.136 3.25253L12.4693 4.58588C12.4947 4.68591 12.4727 4.79056 12.4087 4.87191ZM6.666 3.33256V4.66591C6.666 4.84991 6.51666 4.99925 6.33266 4.99925H3.85331C3.74997 4.99925 3.65397 4.9526 3.59066 4.87125C3.52734 4.78991 3.50466 4.68525 3.53 4.58525L3.86334 3.25191C3.90134 3.10391 4.034 2.99991 4.18669 2.99925H6.33269C6.51666 2.99925 6.666 3.14856 6.666 3.33256ZM15.3333 9.66656H0.666656V8.99991H15.3333V9.66656H15.3333ZM15.3333 8.33325H0.666656V6.6666C0.666656 6.11525 1.11531 5.6666 1.66666 5.6666H3.854H6.33334H9.66669H12.146H14.3334C14.8847 5.6666 15.3334 6.11525 15.3334 6.6666V8.33325H15.3333Z" fill="#112F41" fill-opacity="0.6"/>
</svg>
