<svg width="16" height="16" viewBox="0 0 16 16" fill="none" xmlns="http://www.w3.org/2000/svg">
<path d="M13.6594 2.34079C10.538 -0.780019 5.46158 -0.780019 2.34012 2.34079C-0.779999 5.46159 -0.779999 10.5393 2.34012 13.6601C3.90085 15.2202 5.95047 15.9998 8.00012 15.9998C10.0498 15.9998 12.0987 15.2201 13.6594 13.6601C16.7802 10.5393 16.7802 5.46159 13.6594 2.34079ZM11.301 10.3585C11.5618 10.6193 11.5618 11.0409 11.301 11.3016C11.1709 11.4317 11.0002 11.4971 10.8294 11.4971C10.6587 11.4971 10.4879 11.4317 10.3578 11.3016L8.00008 8.9432L5.64298 11.301C5.51226 11.431 5.3415 11.4964 5.17142 11.4964C5.00068 11.4964 4.82991 11.431 4.69985 11.301C4.43907 11.0402 4.43907 10.618 4.69985 10.3579L7.05696 8.0001L4.69919 5.64233C4.43842 5.38156 4.43842 4.95936 4.69919 4.69924C4.95932 4.43846 5.38151 4.43846 5.64229 4.69924L8.00005 7.057L10.3578 4.69924C10.6186 4.43846 11.0401 4.43846 11.3009 4.69924C11.5617 4.95936 11.5617 5.38156 11.3009 5.64233L8.94315 8.0001L11.301 10.3585Z" fill="#112F41" fill-opacity="0.38"/>
</svg>
