<svg width="12" height="12" viewBox="0 0 12 12" fill="none" xmlns="http://www.w3.org/2000/svg">
<path d="M7.32166 6.00065L11.8083 1.51382C11.9317 1.39031 11.9998 1.22553 12 1.04982C12 0.874013 11.9319 0.709038 11.8083 0.58572L11.4151 0.192647C11.2915 0.0688425 11.1267 0.0010376 10.9508 0.0010376C10.7752 0.0010376 10.6104 0.0688425 10.4868 0.192647L6.0002 4.67918L1.51337 0.192647C1.38995 0.0688425 1.22507 0.0010376 1.04927 0.0010376C0.873659 0.0010376 0.70878 0.0688425 0.585366 0.192647L0.192 0.58572C-0.064 0.841721 -0.064 1.25811 0.192 1.51382L4.67873 6.00065L0.192 10.4873C0.0684878 10.611 0.000487805 10.7758 0.000487805 10.9515C0.000487805 11.1272 0.0684878 11.292 0.192 11.4156L0.585268 11.8086C0.708683 11.9324 0.873658 12.0003 1.04917 12.0003C1.22498 12.0003 1.38985 11.9324 1.51327 11.8086L6.0001 7.32201L10.4867 11.8086C10.6103 11.9324 10.7751 12.0003 10.9507 12.0003H10.9509C11.1266 12.0003 11.2914 11.9324 11.415 11.8086L11.8082 11.4156C11.9316 11.2921 11.9997 11.1272 11.9997 10.9515C11.9997 10.7758 11.9316 10.611 11.8082 10.4874L7.32166 6.00065Z" fill="#112F41" fill-opacity="0.38"/>
</svg>
