<svg width="12" height="8" viewBox="0 0 12 8" fill="none" xmlns="http://www.w3.org/2000/svg">
<path d="M5.99746 2.84408L10.4868 7.33325C10.6101 7.45686 10.775 7.52486 10.9508 7.52486C11.1267 7.52486 11.2915 7.45686 11.415 7.33325L11.8082 6.93988C11.9319 6.81647 12 6.65149 12 6.47569C12 6.29988 11.9319 6.1351 11.8082 6.01159L6.46322 0.666515C6.33932 0.542515 6.17376 0.474612 5.99776 0.4751C5.82098 0.474612 5.65561 0.542417 5.53161 0.666515L0.191806 6.00661C0.0680981 6.13012 0 6.2949 0 6.47081C0 6.64661 0.0680981 6.81139 0.191806 6.935L0.584976 7.32827C0.840878 7.58417 1.25746 7.58417 1.51327 7.32827L5.99746 2.84408Z" fill="url(#paint0_linear)"/>
<defs>
<linearGradient id="paint0_linear" x1="12" y1="10.5" x2="-8.40337e-07" y2="-9" gradientUnits="userSpaceOnUse">
<stop stop-color="#4DA1D1"/>
<stop offset="1" stop-color="#6DC5A8"/>
</linearGradient>
</defs>
</svg>
