<svg width="12" height="8" viewBox="0 0 12 8" fill="none" xmlns="http://www.w3.org/2000/svg">
<path d="M5.99746 5.15592L10.4868 0.666753C10.6101 0.543144 10.775 0.475144 10.9508 0.475144C11.1267 0.475144 11.2915 0.543144 11.415 0.666753L11.8082 1.06012C11.9319 1.18353 12 1.34851 12 1.52431C12 1.70012 11.9319 1.8649 11.8082 1.98841L6.46322 7.33349C6.33932 7.45749 6.17376 7.52539 5.99776 7.5249C5.82098 7.52539 5.65561 7.45758 5.53161 7.33349L0.191806 1.99339C0.0680981 1.86988 0 1.7051 0 1.52919C0 1.35339 0.0680981 1.18861 0.191806 1.065L0.584976 0.67173C0.840878 0.415827 1.25746 0.415827 1.51327 0.67173L5.99746 5.15592Z" fill="#112F41" fill-opacity="0.32"/>
</svg>
