<svg width="28" height="28" viewBox="0 0 28 28" fill="none" xmlns="http://www.w3.org/2000/svg">
<path d="M21.8389 25.7812C23.4728 25.7812 24.7973 24.4567 24.7973 22.8227C24.7973 21.1888 23.4728 19.8643 21.8389 19.8643C20.2049 19.8643 18.8804 21.1888 18.8804 22.8227C18.8804 24.4567 20.2049 25.7812 21.8389 25.7812Z" fill="url(#paint0_linear)"/>
<path d="M28 25.5677C28 26.0093 27.9164 26.4309 27.7639 26.8182H21.4041C21.2515 26.4308 21.168 26.0093 21.168 25.5677C21.168 25.1376 21.2473 24.7265 21.3925 24.3477C21.8835 23.063 23.1273 22.1517 24.584 22.1517C26.0406 22.1517 27.2845 23.063 27.7755 24.3477C27.9207 24.7265 28 25.1376 28 25.5677Z" fill="url(#paint1_linear)"/>
<path d="M22.1833 11.5891V26.8182H2.40088V11.5891L12.2921 1.63806L22.1833 11.5891Z" fill="url(#paint2_linear)"/>
<path d="M22.1829 11.589V26.8182H15.9375L2.40088 13.2816V11.589L12.2919 1.63812L22.1829 11.589Z" fill="url(#paint3_linear)"/>
<path d="M19.1263 26.8183H9.45163L4.13338 21.5C3.89927 21.3483 3.74341 21.0848 3.74341 20.7861V16.5059C3.74341 16.0369 4.12524 15.6551 4.59418 15.6551H7.68003C7.97945 15.6551 8.24288 15.811 8.39463 16.0451L8.37145 16.0634L19.1263 26.8183Z" fill="url(#paint4_linear)"/>
<path d="M7.67987 21.138H4.59424C4.39966 21.138 4.24194 20.9802 4.24194 20.7857V16.506C4.24194 16.3114 4.39966 16.1537 4.59424 16.1537H7.67982C7.8744 16.1537 8.03212 16.3114 8.03212 16.506V20.7857C8.03217 20.9802 7.8744 21.138 7.67987 21.138Z" fill="#503837"/>
<path d="M7.6801 21.6368H4.59446C4.12518 21.6368 3.74341 21.255 3.74341 20.7857V16.506C3.74341 16.0367 4.12518 15.655 4.59446 15.655H7.68004C8.14931 15.655 8.53109 16.0367 8.53109 16.506V20.7857C8.53109 21.255 8.14932 21.6368 7.6801 21.6368ZM4.74086 20.6393H7.53364V16.6525H4.74086V20.6393Z" fill="white"/>
<path d="M22.1836 17.4206V26.8183H21.88L16.5618 21.5C16.327 21.3483 16.1711 21.0848 16.1711 20.7861V16.5059C16.1711 16.0369 16.553 15.6551 17.0226 15.6551H20.1077C20.4072 15.6551 20.6706 15.811 20.8224 16.0451L20.8346 16.0546L20.8264 16.0635L22.1836 17.4206Z" fill="url(#paint5_linear)"/>
<path d="M20.1078 21.138H17.0222C16.8276 21.138 16.6699 20.9802 16.6699 20.7857V16.506C16.6699 16.3114 16.8276 16.1537 17.0222 16.1537H20.1078C20.3024 16.1537 20.4601 16.3114 20.4601 16.506V20.7857C20.4601 20.9802 20.3024 21.138 20.1078 21.138Z" fill="#503837"/>
<path d="M20.1078 21.6368H17.0222C16.5529 21.6368 16.1711 21.255 16.1711 20.7857V16.506C16.1711 16.0367 16.5529 15.655 17.0222 15.655H20.1078C20.577 15.655 20.9588 16.0367 20.9588 16.506V20.7857C20.9588 21.255 20.5771 21.6368 20.1078 21.6368ZM17.1686 20.6393H19.9614V16.6525H17.1686V20.6393Z" fill="white"/>
<path d="M16.1711 18.4148L17.1686 19.4123V16.6841C16.8296 16.6821 16.4966 16.6547 16.1711 16.6038V18.4148Z" fill="url(#paint6_linear)"/>
<path d="M20.9589 20.7858V16.5061C20.9589 16.2029 20.799 15.9369 20.5595 15.7861C19.7515 16.254 18.8374 16.5578 17.8628 16.6525H19.9614V20.6394H18.3955L19.3928 21.6368H20.1078C20.5772 21.6369 20.9589 21.2551 20.9589 20.7858Z" fill="url(#paint7_linear)"/>
<path d="M24.4199 12.9649L12.8872 1.42845C12.5585 1.09978 12.0255 1.09978 11.6968 1.42845L0.161273 12.964C-0.0537578 13.179 -0.0537578 13.5277 0.161273 13.7428L0.652914 14.2345C0.867945 14.4495 1.21663 14.4495 1.43172 14.2345L12.1353 3.5308C12.2218 3.44429 12.3621 3.44429 12.4486 3.5308L23.1494 14.2353C23.3645 14.4504 23.7132 14.4504 23.9282 14.2353L24.4199 13.7437C24.635 13.5286 24.635 13.1799 24.4199 12.9649Z" fill="url(#paint8_linear)"/>
<path d="M12.8872 1.42841C12.7228 1.26402 12.5075 1.18182 12.292 1.18182V3.4658C12.3487 3.4658 12.4054 3.48745 12.4487 3.53071L23.1495 14.2352C23.3645 14.4502 23.7132 14.4502 23.9283 14.2352L24.4199 13.7436C24.635 13.5285 24.635 13.1798 24.4199 12.9648L12.8872 1.42841Z" fill="url(#paint9_linear)"/>
<path d="M10.2307 26.818V16.0111C10.2307 15.5344 10.6171 15.148 11.0938 15.148H13.4903C13.967 15.148 14.3534 15.5344 14.3534 16.0111V26.818H10.2307Z" fill="#816965"/>
<path d="M14.8639 26.818H13.843V16.3053C13.843 15.9495 13.5519 15.6584 13.1962 15.6584H11.388C11.0308 15.6584 10.7412 15.9481 10.7412 16.3053V26.818H9.72021V15.6302C9.72021 15.082 10.1647 14.6376 10.7129 14.6376H13.8712C14.4195 14.6376 14.8639 15.082 14.8639 15.6302V26.818H14.8639Z" fill="#503837"/>
<path d="M11.5607 19.6696C11.8177 19.6696 12.0261 19.4612 12.0261 19.2042C12.0261 18.9471 11.8177 18.7387 11.5607 18.7387C11.3036 18.7387 11.0952 18.9471 11.0952 19.2042C11.0952 19.4612 11.3036 19.6696 11.5607 19.6696Z" fill="white"/>
<path d="M22.1832 24.0943H2.40039V26.8178H22.1832V24.0943Z" fill="#654E48"/>
<path d="M5.81405 25.7537C5.81405 26.1296 5.74295 26.4882 5.61318 26.8179H0.200867C0.0710938 26.4883 0 26.1295 0 25.7537C0 25.3877 0.0674844 25.0378 0.191078 24.7155C0.608945 23.6222 1.66742 22.8467 2.90708 22.8467C4.14673 22.8467 5.20516 23.6222 5.62308 24.7155C5.74656 25.0378 5.81405 25.3877 5.81405 25.7537Z" fill="url(#paint10_linear)"/>
<path d="M7.68849 26.0459C7.68849 26.3186 7.63687 26.5788 7.54281 26.8179H3.61663C3.52246 26.5788 3.47095 26.3186 3.47095 26.0459C3.47095 25.7804 3.51989 25.5267 3.60952 25.2928C3.91266 24.4997 4.68047 23.9371 5.57975 23.9371C6.47903 23.9371 7.24678 24.4997 7.54997 25.2928C7.63955 25.5267 7.68849 25.7805 7.68849 26.0459Z" fill="url(#paint11_linear)"/>
<path d="M20.5625 14.6655L21.8965 13.3315L24.2956 15.7306L22.9616 17.0646L20.5625 14.6655Z" fill="url(#paint12_linear)"/>
<path d="M23.0046 16.5412L23.7721 15.7737C24.1812 15.3646 24.8447 15.3646 25.2538 15.7737L27.6931 18.213C28.1022 18.6221 28.1022 19.2856 27.6931 19.6947L26.9256 20.4622C26.5165 20.8713 25.853 20.8713 25.4439 20.4622L23.0046 18.0229C22.5955 17.6138 22.5955 16.9503 23.0046 16.5412Z" fill="url(#paint13_linear)"/>
<path opacity="0.6" d="M17.2095 15.9353C20.499 15.9353 23.1657 13.2685 23.1657 9.97899C23.1657 6.68942 20.499 4.02271 17.2095 4.02271C13.9199 4.02271 11.2532 6.68942 11.2532 9.97899C11.2532 13.2685 13.9199 15.9353 17.2095 15.9353Z" fill="white"/>
<path d="M17.2097 15.8972C13.9463 15.8972 11.2913 13.2422 11.2913 9.97875C11.2913 6.71527 13.9463 4.06036 17.2097 4.06036C20.4732 4.06036 23.1282 6.71533 23.1282 9.9788C23.1282 13.2423 20.4732 15.8972 17.2097 15.8972ZM17.2097 5.38287C14.6756 5.38287 12.6139 7.44459 12.6139 9.97875C12.6139 12.5129 14.6756 14.5746 17.2097 14.5746C19.7439 14.5746 21.8056 12.5129 21.8056 9.97875C21.8056 7.44459 19.7439 5.38287 17.2097 5.38287Z" fill="#D54003"/>
<path d="M17.2097 16.6843C13.5122 16.6843 10.5042 13.6762 10.5042 9.97876C10.5042 6.28129 13.5122 3.27325 17.2097 3.27325C20.9071 3.27325 23.9152 6.28129 23.9152 9.97876C23.9152 13.6762 20.9071 16.6843 17.2097 16.6843ZM17.2097 4.77175C14.3385 4.77175 12.0026 7.10767 12.0026 9.97882C12.0026 12.85 14.3385 15.1859 17.2097 15.1859C20.0808 15.1859 22.4167 12.85 22.4167 9.97882C22.4167 7.10767 20.0808 4.77175 17.2097 4.77175Z" fill="#FF5D00"/>
<defs>
<linearGradient id="paint0_linear" x1="20.0979" y1="21.0826" x2="23.9064" y2="24.8905" gradientUnits="userSpaceOnUse">
<stop stop-color="#9EB644"/>
<stop offset="1" stop-color="#738611"/>
</linearGradient>
<linearGradient id="paint1_linear" x1="22.657" y1="23.441" x2="26.8723" y2="27.6563" gradientUnits="userSpaceOnUse">
<stop stop-color="#9EB644"/>
<stop offset="1" stop-color="#738611"/>
</linearGradient>
<linearGradient id="paint2_linear" x1="12.2918" y1="14.4028" x2="12.2918" y2="32.2274" gradientUnits="userSpaceOnUse">
<stop stop-color="#E2EDF2"/>
<stop offset="1" stop-color="#9FC7E2"/>
</linearGradient>
<linearGradient id="paint3_linear" x1="13.9161" y1="14.0307" x2="6.46446" y2="6.57846" gradientUnits="userSpaceOnUse">
<stop stop-color="#E2EDF2" stop-opacity="0"/>
<stop offset="1" stop-color="#A5B0B8"/>
</linearGradient>
<linearGradient id="paint4_linear" x1="14.1952" y1="26.7045" x2="3.90735" y2="16.4161" gradientUnits="userSpaceOnUse">
<stop stop-color="#E2EDF2" stop-opacity="0"/>
<stop offset="1" stop-color="#A5B0B8"/>
</linearGradient>
<linearGradient id="paint5_linear" x1="26.0763" y1="26.1571" x2="15.6188" y2="15.7002" gradientUnits="userSpaceOnUse">
<stop stop-color="#E2EDF2" stop-opacity="0"/>
<stop offset="1" stop-color="#A5B0B8"/>
</linearGradient>
<linearGradient id="paint6_linear" x1="17.0703" y1="19.5843" x2="16.3071" y2="15.71" gradientUnits="userSpaceOnUse">
<stop stop-color="#E2EDF2" stop-opacity="0"/>
<stop offset="1" stop-color="#A5B0B8"/>
</linearGradient>
<linearGradient id="paint7_linear" x1="19.7791" y1="19.0507" x2="19.016" y2="15.1764" gradientUnits="userSpaceOnUse">
<stop stop-color="#E2EDF2" stop-opacity="0"/>
<stop offset="1" stop-color="#A5B0B8"/>
</linearGradient>
<linearGradient id="paint8_linear" x1="12.2903" y1="8.98521" x2="12.2903" y2="19.0019" gradientUnits="userSpaceOnUse">
<stop stop-color="#4975AD"/>
<stop offset="1" stop-color="#114F77"/>
</linearGradient>
<linearGradient id="paint9_linear" x1="22.0081" y1="11.4853" x2="16.4537" y2="6.39987" gradientUnits="userSpaceOnUse">
<stop stop-color="#4975AD" stop-opacity="0"/>
<stop offset="1" stop-color="#114F77"/>
</linearGradient>
<linearGradient id="paint10_linear" x1="1.26763" y1="23.9439" x2="4.85485" y2="27.5311" gradientUnits="userSpaceOnUse">
<stop stop-color="#9EB644"/>
<stop offset="1" stop-color="#738611"/>
</linearGradient>
<linearGradient id="paint11_linear" x1="4.39046" y1="24.7334" x2="6.99265" y2="27.3351" gradientUnits="userSpaceOnUse">
<stop stop-color="#9EB644"/>
<stop offset="1" stop-color="#738611"/>
</linearGradient>
<linearGradient id="paint12_linear" x1="23.0956" y1="14.5313" x2="21.7616" y2="15.8653" gradientUnits="userSpaceOnUse">
<stop stop-color="#FFE7A5"/>
<stop offset="0.966" stop-color="#FFBF5C"/>
</linearGradient>
<linearGradient id="paint13_linear" x1="25.9346" y1="17.4547" x2="24.1788" y2="19.4416" gradientUnits="userSpaceOnUse">
<stop stop-color="#FF5D00"/>
<stop offset="1" stop-color="#D54003"/>
</linearGradient>
</defs>
</svg>
