<svg width="16" height="16" viewBox="0 0 16 16" fill="none" xmlns="http://www.w3.org/2000/svg">
<path d="M15.5681 6.95923C15.5678 6.95886 15.5674 6.9585 15.567 6.95813L9.0403 0.431641C8.7621 0.15332 8.39223 0 7.9988 0C7.60536 0 7.23549 0.153198 6.95717 0.431519L0.433854 6.95471C0.431657 6.95691 0.42946 6.95923 0.427263 6.96143C-0.144027 7.53601 -0.14305 8.46826 0.43007 9.04138C0.691911 9.30334 1.03774 9.45508 1.40749 9.47095C1.4225 9.47241 1.43764 9.47314 1.4529 9.47314H1.71303V14.2762C1.71303 15.2267 2.48634 16 3.43703 16H5.99049C6.24928 16 6.45924 15.7902 6.45924 15.5312V11.7656C6.45924 11.3319 6.81203 10.9791 7.24574 10.9791H8.75185C9.18556 10.9791 9.53835 11.3319 9.53835 11.7656V15.5312C9.53835 15.7902 9.74819 16 10.0071 16H12.5606C13.5112 16 14.2846 15.2267 14.2846 14.2762V9.47314H14.5258C14.9191 9.47314 15.289 9.31995 15.5674 9.04163C16.1411 8.46753 16.1414 7.53369 15.5681 6.95923Z" fill="#112F41" fill-opacity="0.2"/>
</svg>
