<svg width="234" height="32" viewBox="0 0 234 32" fill="none" xmlns="http://www.w3.org/2000/svg">
<path fill-rule="evenodd" clip-rule="evenodd" d="M20.0753 28.9486H15.3777L4.21581 15.739C3.93941 15.4218 3.68455 15.0865 3.45295 14.7353H3.37265V28.9486H0V0.0401506H3.37265V13.611H3.45295C3.68455 13.2598 3.93941 12.9245 4.21581 12.6073L15.0163 0H19.2321L6.8256 13.8921L20.0753 28.9486ZM28.3062 28.9486H24.9335V0.0401506H28.3062V28.9486ZM63.0364 28.9486H66.409V0.0803011H62.1932L53.1594 20.1556C52.798 20.9184 52.3563 22.123 51.7541 23.6888H51.6336C51.276 22.5074 50.8332 21.3533 50.3087 20.2359L41.4354 0.0803011H36.9385V28.9887H40.1907V9.63614C40.1907 7.02635 40.1506 5.13927 40.0301 3.97491H40.1104C40.3114 4.98627 40.5934 5.97985 40.9536 6.94605L50.8306 28.9887H52.4768L62.3538 6.78544C62.7136 5.87403 62.9956 4.93384 63.197 3.97491H63.2773C63.0765 6.18319 62.9962 8.07026 62.9962 9.59598V28.9486H63.0364Z" fill="url(#paint0_linear)"/>
<path d="M90.1381 22.7253C90.1381 23.2071 89.8169 23.7692 89.1745 24.4518L88.6124 25.0139C88.3715 25.2146 88.1306 25.4154 87.8897 25.6563C87.6488 25.8972 87.3677 26.0578 87.1268 26.2987C86.8958 26.4984 86.6546 26.686 86.4041 26.8608C85.6814 27.4229 84.9185 27.9449 84.1557 28.4267C83.392 28.9011 82.601 29.3301 81.7868 29.7115C81.0113 30.0762 80.2052 30.3717 79.3778 30.5948C78.6308 30.7945 77.8623 30.9023 77.0892 30.916C76.3762 30.9346 75.6666 30.8118 75.0013 30.5546C74.4348 30.3401 73.9262 29.9964 73.5158 29.5509C73.1148 29.1119 72.8135 28.5915 72.6325 28.0252C72.4325 27.3752 72.3376 26.6975 72.3514 26.0176C72.3385 25.3296 72.4059 24.6424 72.5522 23.97C72.7158 23.277 72.9169 22.5935 73.1544 21.9223C73.4135 21.2576 73.7222 20.6134 74.0779 19.995C74.4232 19.3823 74.8265 18.8042 75.2824 18.2686C75.5634 17.9474 75.8445 17.6262 76.1657 17.305C76.4869 16.9838 76.8483 16.6626 77.2096 16.3413C77.5666 16.025 77.942 15.7301 78.3338 15.458C78.6761 15.1897 79.0385 14.9481 79.4179 14.7353C79.6588 14.6149 79.9399 14.4543 80.3012 14.2535C80.6626 14.0528 81.0239 13.8922 81.4254 13.7316C81.8269 13.571 82.2284 13.4505 82.5898 13.3301C82.9146 13.227 83.2529 13.1729 83.5936 13.1695C83.9587 13.1604 84.3234 13.2009 84.6776 13.2899C84.9431 13.3297 85.1929 13.4407 85.4003 13.6111C85.5161 13.7235 85.6235 13.8443 85.7215 13.9725C85.8513 14.1398 85.9719 14.314 86.0829 14.4944C86.2003 14.669 86.2948 14.8579 86.364 15.0565C86.4362 15.1931 86.4773 15.3439 86.4844 15.4982C86.4727 15.6951 86.4179 15.887 86.3238 16.0603C86.2034 16.3012 86.0829 16.5823 85.9223 16.8633C85.7617 17.1444 85.6011 17.3853 85.4405 17.6262C85.3337 17.7966 85.2129 17.9578 85.0791 18.108C84.9551 18.2575 84.8023 18.3807 84.63 18.4703C84.4576 18.56 84.269 18.6142 84.0754 18.6299C83.942 18.6355 83.809 18.6133 83.6846 18.565C83.5603 18.5166 83.4472 18.443 83.3527 18.3489C83.1909 18.1588 83.1051 17.9158 83.1118 17.6663C83.1285 17.5082 83.1836 17.3566 83.2724 17.2247C83.4278 16.9605 83.6167 16.7176 83.8345 16.5019C84.0719 16.2942 84.2752 16.0503 84.4367 15.7792C84.5973 15.5383 84.6776 15.4179 84.7178 15.3376C84.5543 15.2103 84.3606 15.1273 84.1557 15.0967C83.958 15.0503 83.7563 15.0234 83.5534 15.0164C83.2111 15.0361 82.8732 15.1037 82.5497 15.2171C82.135 15.3428 81.732 15.504 81.3451 15.6989C80.9436 15.8997 80.5421 16.1004 80.1406 16.3413C79.7875 16.5403 79.4517 16.7686 79.1368 17.0239C78.3794 17.6547 77.6683 18.339 77.0089 19.0716C76.3466 19.7973 75.8045 20.6241 75.4028 21.5208C75.2422 21.8821 75.0816 22.2836 74.921 22.6851C74.7604 23.0866 74.64 23.4881 74.5195 23.8897C74.4025 24.2989 74.3087 24.7145 74.2385 25.1343C74.1983 25.5358 74.1582 25.9373 74.1582 26.2987C74.1496 26.7192 74.2037 27.1387 74.3188 27.5434C74.4273 27.9081 74.6045 28.2488 74.8407 28.5471C75.089 28.8362 75.4068 29.0573 75.7642 29.1895C76.2114 29.3645 76.6895 29.4465 77.1695 29.4304C77.7927 29.4268 78.4131 29.3459 79.0164 29.1895C79.6572 29.0115 80.2872 28.7971 80.9035 28.5471C81.5392 28.266 82.1562 27.9442 82.7504 27.5835C83.3527 27.2221 83.9549 26.8206 84.517 26.4593C85.0791 26.0979 85.6412 25.6563 86.1231 25.2548C86.6049 24.8533 87.0867 24.4919 87.5283 24.1306C87.7122 23.981 87.8865 23.82 88.0503 23.6488C88.2468 23.4849 88.4345 23.3107 88.6124 23.1268C88.7963 22.963 88.9706 22.7887 89.1344 22.6048L89.6162 22.123C89.6906 22.1265 89.7636 22.1451 89.8306 22.1776C89.8977 22.2101 89.9575 22.2559 90.0063 22.3122C90.0551 22.3686 90.0919 22.4342 90.1146 22.5052C90.1373 22.5762 90.1453 22.6511 90.1381 22.7253Z" fill="url(#paint1_linear)"/>
<path d="M106.238 22.3238C106.243 22.4323 106.229 22.5408 106.198 22.645C106.176 22.7708 106.136 22.8926 106.078 23.0063L105.957 23.3677C105.929 23.4735 105.873 23.5702 105.797 23.6487C105.757 23.6889 105.676 23.8093 105.596 23.8897C105.516 23.97 105.435 24.0904 105.315 24.2109C105.205 24.3411 105.084 24.462 104.954 24.5722L104.592 24.9336L103.227 26.1782C102.81 26.573 102.352 26.9228 101.862 27.2221C101.396 27.5189 100.898 27.7613 100.377 27.9449C99.848 28.1287 99.2894 28.2105 98.7303 28.1858C98.4412 28.191 98.1541 28.1363 97.8872 28.0252C97.6034 27.9093 97.334 27.7611 97.0841 27.5835C96.8403 27.3859 96.6242 27.1563 96.4417 26.9009C96.2713 26.644 96.1489 26.3584 96.0804 26.0578C95.8796 26.2987 95.6387 26.4994 95.3978 26.7805C95.1569 27.0615 94.916 27.2623 94.635 27.5032C94.3539 27.7441 94.113 27.985 93.832 28.2259C93.5509 28.4668 93.2698 28.6676 92.9888 28.8683C92.7973 28.992 92.5959 29.0994 92.3865 29.1895C92.1534 29.3132 91.9119 29.4206 91.6638 29.5107C91.4229 29.591 91.182 29.6713 90.901 29.7516C90.6758 29.7959 90.4476 29.8227 90.2184 29.8319C89.9247 29.8437 89.6376 29.7432 89.4154 29.5509C89.1968 29.3359 89.0078 29.0929 88.8533 28.8282C88.7048 28.5505 88.5967 28.2531 88.5321 27.9449C88.4581 27.6697 88.4177 27.3866 88.4116 27.1017C88.4217 26.5872 88.489 26.0755 88.6124 25.576C88.7576 25.0659 88.9457 24.5689 89.1745 24.0904C89.4047 23.6093 89.6593 23.1403 89.9373 22.6851C90.1893 22.2768 90.4712 21.8876 90.7805 21.5208C91.0726 21.1343 91.4095 20.7838 91.7843 20.4769C92.1658 20.1314 92.5681 19.8096 92.9888 19.5132C93.377 19.2401 93.7944 19.0111 94.2335 18.8307C94.5764 18.6827 94.9442 18.6009 95.3175 18.5898H95.7993C95.9743 18.5831 96.1494 18.5966 96.3213 18.6299C96.4974 18.64 96.6722 18.6669 96.8432 18.7102C96.9983 18.7392 97.1475 18.7934 97.2849 18.8708C97.3843 18.9295 97.4672 19.0124 97.5258 19.1117C97.6145 19.2542 97.6949 19.4017 97.7667 19.5534C97.8505 19.7064 97.9178 19.8679 97.9675 20.0352C98.0052 20.153 98.032 20.2739 98.0478 20.3965C98.0386 20.7367 97.9846 21.0743 97.8872 21.4003C97.7667 21.9223 97.6463 22.4041 97.566 22.8056C97.4706 23.2276 97.4168 23.6579 97.4054 24.0904C97.4089 24.3623 97.4494 24.6324 97.5258 24.8934C97.6053 25.1527 97.7274 25.397 97.8872 25.6161C98.0439 25.8204 98.2339 25.9969 98.4493 26.1381C98.6838 26.2652 98.9454 26.3341 99.2121 26.3388C99.6945 26.3388 100.172 26.2433 100.617 26.0578C101.131 25.8527 101.617 25.5828 102.063 25.2548C102.579 24.8946 103.075 24.5058 103.548 24.0904C104.03 23.6487 104.512 23.1669 104.994 22.6851C105.069 22.6119 105.136 22.5312 105.195 22.4442C105.275 22.3238 105.395 22.2435 105.476 22.123C105.572 22.0182 105.68 21.924 105.797 21.842C105.849 21.7809 105.919 21.7386 105.998 21.7215C106.086 21.7926 106.155 21.8854 106.197 21.9909C106.24 22.0965 106.254 22.2111 106.238 22.3238ZM96.2811 21.4003C96.2847 21.2387 96.2712 21.0773 96.241 20.9185C96.2375 20.7576 96.1811 20.6024 96.0804 20.4769C96.0452 20.4247 95.9971 20.3825 95.9409 20.3544C95.8846 20.3262 95.822 20.3131 95.7592 20.3162H95.3978C95.1386 20.3138 94.8808 20.3545 94.635 20.4367C94.3791 20.5245 94.136 20.646 93.9123 20.7981C93.6752 20.9592 93.4473 21.1335 93.2297 21.32L92.6274 21.9223C92.4668 22.0829 92.2661 22.3238 92.0653 22.5647C91.8596 22.833 91.6718 23.1147 91.5032 23.4078C91.3125 23.7197 91.1383 24.0413 90.9813 24.3715C90.81 24.695 90.6624 25.0304 90.5396 25.3752C90.4192 25.6964 90.2987 26.0176 90.2184 26.2987C90.142 26.5597 90.1015 26.8298 90.0979 27.1017C90.0958 27.2101 90.1093 27.3183 90.1381 27.4229C90.1782 27.5434 90.1782 27.6638 90.2184 27.7843C90.2631 27.8827 90.3169 27.9768 90.379 28.0653C90.4144 28.1045 90.4578 28.1356 90.5063 28.1564C90.5548 28.1771 90.6073 28.1872 90.6601 28.1858C91.104 28.1561 91.5392 28.0473 91.9449 27.8646C92.633 27.5641 93.2697 27.1577 93.832 26.66C94.4005 26.1221 94.8996 25.5151 95.3175 24.8533C95.9546 23.8147 96.2884 22.6187 96.2811 21.4003Z" fill="url(#paint2_linear)"/>
<path d="M116.316 21.8418C116.308 21.9833 116.267 22.1208 116.196 22.2433C116.117 22.3993 116.022 22.5472 115.915 22.685L115.553 23.1668C115.393 23.3274 115.272 23.488 115.112 23.6486C114.981 23.7732 114.861 23.9074 114.75 24.0501L114.309 24.4917L113.747 25.0538C113.546 25.2546 113.265 25.4955 112.984 25.7766C112.703 26.0576 112.422 26.2985 112.1 26.5796C111.779 26.8606 111.458 27.1417 111.137 27.3826C110.816 27.6235 110.494 27.9045 110.213 28.1454C109.932 28.3863 109.651 28.6272 109.41 28.7878C108.888 29.2295 108.366 29.631 107.885 30.0325C107.432 30.4196 106.949 30.7687 106.439 31.0764C105.516 31.7188 104.753 31.9999 104.231 31.9999C104.007 31.9994 103.786 31.9443 103.588 31.8393C103.493 31.8199 103.407 31.7705 103.342 31.6982C103.276 31.6259 103.236 31.5346 103.227 31.4378C103.218 31.2182 103.265 30.9999 103.363 30.8033C103.462 30.6067 103.608 30.4382 103.789 30.3136C104.307 29.9521 104.875 29.668 105.476 29.4704C106.079 29.2618 106.647 28.9641 107.162 28.5871C107.34 28.4508 107.484 28.2744 107.582 28.0721C107.68 27.8698 107.728 27.6473 107.724 27.4227C107.724 27.1818 107.483 26.6599 106.961 25.9372C106.72 25.5758 106.479 25.2144 106.279 24.8932C106.078 24.572 105.917 24.291 105.757 24.0501C105.476 23.5463 105.324 22.9807 105.315 22.4039C105.314 21.8693 105.409 21.3389 105.596 20.838C105.685 20.5058 105.835 20.1928 106.038 19.9146C106.219 19.61 106.435 19.3271 106.68 19.0714C106.901 18.8474 107.143 18.6457 107.403 18.4692C107.59 18.3358 107.815 18.2655 108.045 18.2684C108.688 18.2684 109.049 18.6699 109.049 19.4328C109.032 19.7526 108.921 20.0603 108.728 20.3161C108.598 20.4551 108.477 20.6026 108.366 20.7577C108.201 20.9147 108.027 21.0622 107.844 21.1994C107.644 21.36 107.483 21.4804 107.363 21.6009C107.246 21.6976 107.138 21.8052 107.041 21.9221C107.062 22.3979 107.185 22.8636 107.403 23.2872C107.523 23.5281 107.684 23.8092 107.844 24.1304C108.005 24.4516 108.206 24.7326 108.407 25.094C108.607 25.4554 108.808 25.7364 108.969 26.0175C109.09 26.2104 109.197 26.4116 109.29 26.6197C109.29 26.6599 109.33 26.6599 109.41 26.6599C109.602 26.6267 109.782 26.5436 109.932 26.419C110.173 26.2584 110.494 26.0576 110.856 25.8167C111.217 25.5758 111.619 25.2546 112.02 24.9334C112.422 24.6122 112.863 24.2107 113.265 23.8493C113.666 23.488 114.068 23.1266 114.349 22.8456L115.152 22.0426C115.351 21.8535 115.539 21.6524 115.714 21.4403C115.766 21.3603 115.835 21.2919 115.915 21.2395C115.975 21.2496 116.031 21.2776 116.075 21.3198C116.115 21.36 116.156 21.4403 116.196 21.4804L116.316 21.7213V21.8418Z" fill="url(#paint3_linear)"/>
<path d="M120.452 21.4806C120.484 21.0645 120.401 20.6475 120.211 20.276C120.155 20.1736 120.074 20.0869 119.976 20.0238C119.877 19.9607 119.765 19.9232 119.649 19.9147C119.455 19.916 119.264 19.957 119.086 20.0351C118.9 20.1044 118.725 20.199 118.565 20.3162L118.083 20.6776C117.951 20.8012 117.83 20.9355 117.721 21.0791C117.561 21.32 117.36 21.601 117.159 21.8821L116.557 22.8457C116.356 23.1669 116.196 23.5282 115.995 23.8896C115.794 24.251 115.674 24.5722 115.513 24.9335C115.388 25.2484 115.281 25.5702 115.192 25.8971C115.116 26.1581 115.075 26.4282 115.071 26.7001C115.061 26.9942 115.13 27.2855 115.272 27.5433C115.362 27.6567 115.479 27.7457 115.612 27.8018C115.746 27.858 115.891 27.8795 116.035 27.8645C116.24 27.8339 116.434 27.7509 116.597 27.6236C116.877 27.4391 117.145 27.238 117.4 27.0213C117.681 26.7804 117.962 26.4994 118.243 26.2183C118.495 25.9677 118.711 25.684 118.886 25.3752C119.091 25.0785 119.278 24.7701 119.448 24.4517C119.649 24.1305 119.809 23.7691 119.97 23.4479C120.119 23.1245 120.24 22.7886 120.331 22.4442C120.371 22.0828 120.452 21.7616 120.452 21.4806ZM126.675 26.4592C126.664 26.5957 126.637 26.7305 126.595 26.8607C126.555 27.0268 126.472 27.1793 126.354 27.3024C126.207 27.5617 126.032 27.804 125.832 28.0251C125.61 28.26 125.368 28.475 125.109 28.6675C124.837 28.8668 124.54 29.0288 124.226 29.1493C123.906 29.2771 123.566 29.3452 123.222 29.3501C122.811 29.3539 122.408 29.2427 122.058 29.0289C121.73 28.8148 121.444 28.5427 121.214 28.2259C120.963 27.8572 120.774 27.4505 120.652 27.0213C120.49 26.5374 120.369 26.0404 120.291 25.5358C119.949 26.0409 119.559 26.5115 119.127 26.941C118.688 27.4007 118.218 27.83 117.721 28.2259C117.275 28.5662 116.806 28.8748 116.316 29.1493C115.935 29.3641 115.509 29.4878 115.071 29.5107C114.834 29.5196 114.598 29.4641 114.389 29.3501C114.175 29.2238 113.984 29.0607 113.827 28.8683C113.67 28.6553 113.535 28.4265 113.425 28.1857C113.33 27.9143 113.275 27.6301 113.265 27.3425C113.271 27.0333 113.298 26.7248 113.345 26.4191C113.391 26.0641 113.472 25.7145 113.586 25.3752C113.706 25.0138 113.867 24.6123 114.028 24.1707C114.23 23.6906 114.458 23.2215 114.71 22.7654C115.005 22.1756 115.369 21.623 115.794 21.1192C116.179 20.6373 116.594 20.1813 117.039 19.7541C117.405 19.403 117.809 19.0933 118.243 18.8306C118.515 18.6325 118.833 18.508 119.167 18.4693C119.249 18.4629 119.332 18.4767 119.408 18.5094C119.498 18.5568 119.592 18.5971 119.689 18.6299C119.769 18.67 119.889 18.67 119.97 18.7102C120.046 18.7429 120.128 18.7567 120.211 18.7503C120.267 18.7563 120.324 18.7421 120.371 18.7102C120.411 18.67 120.492 18.67 120.532 18.6299C120.572 18.5897 120.652 18.5496 120.693 18.5094C120.74 18.4775 120.797 18.4633 120.853 18.4693C120.951 18.4772 121.047 18.5045 121.134 18.5496C121.259 18.6028 121.369 18.6855 121.455 18.7905C121.557 18.8795 121.639 18.9889 121.696 19.1117C121.766 19.2241 121.82 19.3457 121.857 19.473C121.89 19.5825 121.931 19.6898 121.977 19.7942L122.138 19.9548C122.187 20.0161 122.227 20.0836 122.258 20.1556C122.297 20.258 122.311 20.3681 122.299 20.4768C122.299 20.5571 122.258 20.7177 122.218 20.9586C122.178 21.1995 122.098 21.4806 122.058 21.8018C122.017 22.123 121.937 22.4442 121.897 22.8055C121.854 23.1117 121.827 23.42 121.817 23.729C121.808 24.3869 121.848 25.0445 121.937 25.6964C121.986 26.116 122.108 26.5238 122.299 26.9009C122.42 27.1544 122.616 27.3647 122.861 27.5031C123.07 27.6172 123.305 27.6727 123.543 27.6638C124.028 27.6881 124.511 27.5915 124.948 27.3827C125.324 27.17 125.651 26.8831 125.912 26.5395C125.992 26.4191 126.073 26.3388 126.113 26.2585C126.128 26.2269 126.15 26.1995 126.178 26.1785C126.206 26.1576 126.239 26.1437 126.273 26.138C126.326 26.1366 126.379 26.1466 126.427 26.1674C126.476 26.1882 126.519 26.2193 126.554 26.2585C126.591 26.2773 126.622 26.3061 126.644 26.3416C126.665 26.3771 126.676 26.4178 126.675 26.4592Z" fill="url(#paint4_linear)"/>
<path d="M125.992 26.3389C125.992 26.3389 126.876 24.9336 128 24.9336C131.212 24.9336 131.493 28.7077 142.856 28.7077C156.507 28.7077 170.479 12.3665 190.956 12.3665C198.223 12.3665 208.02 14.2535 214.725 14.1331C225.204 13.8922 233.275 4.01514 233.275 4.01514C230.901 7.4214 227.735 10.1991 224.049 12.1087C220.362 14.0183 216.267 15.0025 212.115 14.9762C198.785 14.9361 193.084 10.6801 178.349 15.4179C162.73 20.4367 153.496 29.2297 144.462 29.4305C132.457 29.7115 130.369 26.0578 128.683 26.0578C127.077 26.0578 126.033 27.8646 126.033 27.8646V26.3389H125.992Z" fill="url(#paint5_linear)"/>
<defs>
<linearGradient id="paint0_linear" x1="33.2045" y1="0" x2="33.2045" y2="28.9887" gradientUnits="userSpaceOnUse">
<stop stop-color="white" stop-opacity="0.48"/>
<stop offset="0.513542" stop-color="white"/>
<stop offset="1" stop-color="white" stop-opacity="0.48"/>
</linearGradient>
<linearGradient id="paint1_linear" x1="81.2453" y1="13.1682" x2="81.2453" y2="30.9178" gradientUnits="userSpaceOnUse">
<stop stop-color="white" stop-opacity="0.48"/>
<stop offset="0.513542" stop-color="white"/>
<stop offset="1" stop-color="white" stop-opacity="0.48"/>
</linearGradient>
<linearGradient id="paint2_linear" x1="97.328" y1="18.5881" x2="97.328" y2="29.8329" gradientUnits="userSpaceOnUse">
<stop stop-color="white" stop-opacity="0.48"/>
<stop offset="0.513542" stop-color="white"/>
<stop offset="1" stop-color="white" stop-opacity="0.48"/>
</linearGradient>
<linearGradient id="paint3_linear" x1="109.771" y1="18.2683" x2="109.771" y2="31.9999" gradientUnits="userSpaceOnUse">
<stop stop-color="white" stop-opacity="0.48"/>
<stop offset="0.513542" stop-color="white"/>
<stop offset="1" stop-color="white" stop-opacity="0.48"/>
</linearGradient>
<linearGradient id="paint4_linear" x1="119.97" y1="18.4678" x2="119.97" y2="29.5116" gradientUnits="userSpaceOnUse">
<stop stop-color="white" stop-opacity="0.48"/>
<stop offset="0.513542" stop-color="white"/>
<stop offset="1" stop-color="white" stop-opacity="0.48"/>
</linearGradient>
<linearGradient id="paint5_linear" x1="179.634" y1="4.01514" x2="179.634" y2="29.4459" gradientUnits="userSpaceOnUse">
<stop stop-color="white" stop-opacity="0.48"/>
<stop offset="0.513542" stop-color="white"/>
<stop offset="1" stop-color="white" stop-opacity="0.48"/>
</linearGradient>
</defs>
</svg>
