<svg width="12" height="16" viewBox="0 0 12 16" fill="none" xmlns="http://www.w3.org/2000/svg">
<path d="M6.00004 0C2.80488 0 0.205444 2.59944 0.205444 5.79456C0.205444 9.75981 5.39104 15.581 5.61182 15.8269C5.81919 16.0579 6.18126 16.0575 6.38826 15.8269C6.60904 15.581 11.7946 9.75981 11.7946 5.79456C11.7946 2.59944 9.19516 0 6.00004 0ZM6.00004 8.70997C4.39248 8.70997 3.08466 7.40212 3.08466 5.79456C3.08466 4.187 4.39251 2.87919 6.00004 2.87919C7.60757 2.87919 8.91538 4.18703 8.91538 5.79459C8.91538 7.40216 7.60757 8.70997 6.00004 8.70997Z" fill="#112F41" fill-opacity="0.2"/>
</svg>
