<svg width="12" height="20" viewBox="0 0 12 20" fill="none" xmlns="http://www.w3.org/2000/svg">
<path d="M7.92658 10.0042L0.44463 2.52195C0.238614 2.31642 0.12528 2.04163 0.12528 1.74862C0.12528 1.45545 0.238614 1.18081 0.44463 0.974959L1.10024 0.319675C1.30593 0.113496 1.58089 0 1.8739 0C2.16691 0 2.44154 0.113496 2.64739 0.319675L11.5558 9.22797C11.7625 9.43447 11.8757 9.71041 11.8749 10.0037C11.8757 10.2984 11.7627 10.574 11.5558 10.7807L2.65569 19.6803C2.44983 19.8865 2.1752 20 1.88203 20C1.58902 20 1.31439 19.8865 1.10837 19.6803L0.452923 19.025C0.0264187 18.5985 0.0264187 17.9042 0.452923 17.4779L7.92658 10.0042Z" fill="white"/>
</svg>
