<svg width="20" height="20" viewBox="0 0 20 20" fill="none" xmlns="http://www.w3.org/2000/svg">
<path d="M4.138 2.06899H3.44834C3.2579 2.06899 3.10352 1.9146 3.10352 1.72416C3.10352 1.53372 3.2579 1.37933 3.44834 1.37933H4.138C4.32844 1.37933 4.48282 1.53372 4.48282 1.72416C4.48282 1.9146 4.32844 2.06899 4.138 2.06899Z" fill="#35495E"/>
<path d="M6.20684 2.06899H5.51719C5.32675 2.06899 5.17236 1.9146 5.17236 1.72416C5.17236 1.53372 5.32675 1.37933 5.51719 1.37933H6.20684C6.39729 1.37933 6.55167 1.53372 6.55167 1.72416C6.55167 1.9146 6.39729 2.06899 6.20684 2.06899Z" fill="#35495E"/>
<path d="M8.27606 2.06899H7.5864C7.39596 2.06899 7.24158 1.9146 7.24158 1.72416C7.24158 1.53372 7.39596 1.37933 7.5864 1.37933H8.27606C8.4665 1.37933 8.62088 1.53372 8.62088 1.72416C8.62088 1.9146 8.4665 2.06899 8.27606 2.06899Z" fill="#35495E"/>
<path d="M10.345 2.06899H9.65538C9.46493 2.06899 9.31055 1.9146 9.31055 1.72416C9.31055 1.53372 9.46493 1.37933 9.65538 1.37933H10.345C10.5355 1.37933 10.6899 1.53372 10.6899 1.72416C10.6899 1.9146 10.5355 2.06899 10.345 2.06899Z" fill="#35495E"/>
<path d="M12.4139 2.06899H11.7242C11.5338 2.06899 11.3794 1.9146 11.3794 1.72416C11.3794 1.53372 11.5338 1.37933 11.7242 1.37933H12.4139C12.6043 1.37933 12.7587 1.53372 12.7587 1.72416C12.7587 1.9146 12.6043 2.06899 12.4139 2.06899Z" fill="#35495E"/>
<path d="M14.4827 2.06899H13.7931C13.6026 2.06899 13.4482 1.9146 13.4482 1.72416C13.4482 1.53372 13.6026 1.37933 13.7931 1.37933H14.4827C14.6732 1.37933 14.8276 1.53372 14.8276 1.72416C14.8276 1.9146 14.6732 2.06899 14.4827 2.06899Z" fill="#35495E"/>
<path d="M16.5517 2.06899H15.862C15.6716 2.06899 15.5172 1.9146 15.5172 1.72416C15.5172 1.53372 15.6716 1.37933 15.862 1.37933H16.5517C16.7421 1.37933 16.8965 1.53372 16.8965 1.72416C16.8965 1.9146 16.7421 2.06899 16.5517 2.06899Z" fill="#35495E"/>
<path d="M4.138 18.6207H3.44834C3.2579 18.6207 3.10352 18.4664 3.10352 18.2759C3.10352 18.0855 3.2579 17.9311 3.44834 17.9311H4.138C4.32844 17.9311 4.48282 18.0855 4.48282 18.2759C4.48282 18.4664 4.32844 18.6207 4.138 18.6207Z" fill="#35495E"/>
<path d="M6.20684 18.6207H5.51719C5.32675 18.6207 5.17236 18.4664 5.17236 18.2759C5.17236 18.0855 5.32675 17.9311 5.51719 17.9311H6.20684C6.39729 17.9311 6.55167 18.0855 6.55167 18.2759C6.55167 18.4664 6.39729 18.6207 6.20684 18.6207Z" fill="#35495E"/>
<path d="M8.27606 18.6207H7.5864C7.39596 18.6207 7.24158 18.4664 7.24158 18.2759C7.24158 18.0855 7.39596 17.9311 7.5864 17.9311H8.27606C8.4665 17.9311 8.62088 18.0855 8.62088 18.2759C8.62088 18.4664 8.4665 18.6207 8.27606 18.6207Z" fill="#35495E"/>
<path d="M10.345 18.6207H9.65538C9.46493 18.6207 9.31055 18.4664 9.31055 18.2759C9.31055 18.0855 9.46493 17.9311 9.65538 17.9311H10.345C10.5355 17.9311 10.6899 18.0855 10.6899 18.2759C10.6899 18.4664 10.5355 18.6207 10.345 18.6207Z" fill="#35495E"/>
<path d="M12.4139 18.6207H11.7242C11.5338 18.6207 11.3794 18.4664 11.3794 18.2759C11.3794 18.0855 11.5338 17.9311 11.7242 17.9311H12.4139C12.6043 17.9311 12.7587 18.0855 12.7587 18.2759C12.7587 18.4664 12.6043 18.6207 12.4139 18.6207Z" fill="#35495E"/>
<path d="M14.4827 18.6207H13.7931C13.6026 18.6207 13.4482 18.4664 13.4482 18.2759C13.4482 18.0855 13.6026 17.9311 13.7931 17.9311H14.4827C14.6732 17.9311 14.8276 18.0855 14.8276 18.2759C14.8276 18.4664 14.6732 18.6207 14.4827 18.6207Z" fill="#35495E"/>
<path d="M16.5517 18.6207H15.862C15.6716 18.6207 15.5172 18.4664 15.5172 18.2759C15.5172 18.0855 15.6716 17.9311 15.862 17.9311H16.5517C16.7421 17.9311 16.8965 18.0855 16.8965 18.2759C16.8965 18.4664 16.7421 18.6207 16.5517 18.6207Z" fill="#35495E"/>
<path d="M1.72422 16.8966C1.53378 16.8966 1.37939 16.7422 1.37939 16.5517V15.8621C1.37939 15.6717 1.53378 15.5173 1.72422 15.5173C1.91466 15.5173 2.06905 15.6717 2.06905 15.8621V16.5517C2.06905 16.7422 1.91466 16.8966 1.72422 16.8966Z" fill="#35495E"/>
<path d="M1.72422 14.8276C1.53378 14.8276 1.37939 14.6732 1.37939 14.4828V13.7931C1.37939 13.6027 1.53378 13.4483 1.72422 13.4483C1.91466 13.4483 2.06905 13.6027 2.06905 13.7931V14.4828C2.06905 14.6732 1.91466 14.8276 1.72422 14.8276Z" fill="#35495E"/>
<path d="M1.72422 12.7587C1.53378 12.7587 1.37939 12.6043 1.37939 12.4138V11.7242C1.37939 11.5337 1.53378 11.3793 1.72422 11.3793C1.91466 11.3793 2.06905 11.5337 2.06905 11.7242V12.4138C2.06905 12.6043 1.91466 12.7587 1.72422 12.7587Z" fill="#35495E"/>
<path d="M1.72422 10.6897C1.53378 10.6897 1.37939 10.5353 1.37939 10.3448V9.65519C1.37939 9.46475 1.53378 9.31036 1.72422 9.31036C1.91466 9.31036 2.06905 9.46475 2.06905 9.65519V10.3448C2.06905 10.5353 1.91466 10.6897 1.72422 10.6897Z" fill="#35495E"/>
<path d="M1.72422 8.6207C1.53378 8.6207 1.37939 8.46632 1.37939 8.27587V7.58622C1.37939 7.39578 1.53378 7.24139 1.72422 7.24139C1.91466 7.24139 2.06905 7.39578 2.06905 7.58622V8.27587C2.06905 8.46632 1.91466 8.6207 1.72422 8.6207Z" fill="#35495E"/>
<path d="M1.72422 6.55173C1.53378 6.55173 1.37939 6.39735 1.37939 6.2069V5.51725C1.37939 5.32681 1.53378 5.17242 1.72422 5.17242C1.91466 5.17242 2.06905 5.32681 2.06905 5.51725V6.2069C2.06905 6.39735 1.91466 6.55173 1.72422 6.55173Z" fill="#35495E"/>
<path d="M1.72422 4.48276C1.53378 4.48276 1.37939 4.32838 1.37939 4.13793V3.44828C1.37939 3.25784 1.53378 3.10345 1.72422 3.10345C1.91466 3.10345 2.06905 3.25784 2.06905 3.44828V4.13793C2.06905 4.32838 1.91466 4.48276 1.72422 4.48276Z" fill="#35495E"/>
<path d="M18.276 16.8966C18.0855 16.8966 17.9312 16.7422 17.9312 16.5517V15.8621C17.9312 15.6717 18.0855 15.5173 18.276 15.5173C18.4664 15.5173 18.6208 15.6717 18.6208 15.8621V16.5517C18.6208 16.7422 18.4664 16.8966 18.276 16.8966Z" fill="#35495E"/>
<path d="M18.276 14.8276C18.0855 14.8276 17.9312 14.6732 17.9312 14.4828V13.7931C17.9312 13.6027 18.0855 13.4483 18.276 13.4483C18.4664 13.4483 18.6208 13.6027 18.6208 13.7931V14.4828C18.6208 14.6732 18.4664 14.8276 18.276 14.8276Z" fill="#35495E"/>
<path d="M18.276 12.7587C18.0855 12.7587 17.9312 12.6043 17.9312 12.4138V11.7242C17.9312 11.5337 18.0855 11.3793 18.276 11.3793C18.4664 11.3793 18.6208 11.5337 18.6208 11.7242V12.4138C18.6208 12.6043 18.4664 12.7587 18.276 12.7587Z" fill="#35495E"/>
<path d="M18.276 10.6897C18.0855 10.6897 17.9312 10.5353 17.9312 10.3448V9.65519C17.9312 9.46475 18.0855 9.31036 18.276 9.31036C18.4664 9.31036 18.6208 9.46475 18.6208 9.65519V10.3448C18.6208 10.5353 18.4664 10.6897 18.276 10.6897Z" fill="#35495E"/>
<path d="M18.276 8.6207C18.0855 8.6207 17.9312 8.46632 17.9312 8.27587V7.58622C17.9312 7.39578 18.0855 7.24139 18.276 7.24139C18.4664 7.24139 18.6208 7.39578 18.6208 7.58622V8.27587C18.6208 8.46632 18.4664 8.6207 18.276 8.6207Z" fill="#35495E"/>
<path d="M18.276 6.55173C18.0855 6.55173 17.9312 6.39735 17.9312 6.2069V5.51725C17.9312 5.32681 18.0855 5.17242 18.276 5.17242C18.4664 5.17242 18.6208 5.32681 18.6208 5.51725V6.2069C18.6208 6.39735 18.4664 6.55173 18.276 6.55173Z" fill="#35495E"/>
<path d="M18.276 4.48276C18.0855 4.48276 17.9312 4.32838 17.9312 4.13793V3.44828C17.9312 3.25784 18.0855 3.10345 18.276 3.10345C18.4664 3.10345 18.6208 3.25784 18.6208 3.44828V4.13793C18.6208 4.32838 18.4664 4.48276 18.276 4.48276Z" fill="#35495E"/>
<path d="M2.75862 0H0.689655C0.308769 0 0 0.308769 0 0.689655V2.75862C0 3.13951 0.308769 3.44828 0.689655 3.44828H2.75862C3.13951 3.44828 3.44828 3.13951 3.44828 2.75862V0.689655C3.44828 0.308769 3.13951 0 2.75862 0Z" fill="#FF5364"/>
<path d="M13.4484 5.86206H6.55184C6.17095 5.86206 5.86218 6.17083 5.86218 6.55172V13.4483C5.86218 13.8292 6.17095 14.1379 6.55184 14.1379H13.4484C13.8293 14.1379 14.138 13.8292 14.138 13.4483V6.55172C14.138 6.17083 13.8293 5.86206 13.4484 5.86206Z" fill="#5D4C72"/>
<path d="M2.75862 16.5517H0.689655C0.308769 16.5517 0 16.8605 0 17.2414V19.3103C0 19.6912 0.308769 20 0.689655 20H2.75862C3.13951 20 3.44828 19.6912 3.44828 19.3103V17.2414C3.44828 16.8605 3.13951 16.5517 2.75862 16.5517Z" fill="#FF5364"/>
<path d="M19.3104 0H17.2414C16.8605 0 16.5518 0.308769 16.5518 0.689655V2.75862C16.5518 3.13951 16.8605 3.44828 17.2414 3.44828H19.3104C19.6913 3.44828 20 3.13951 20 2.75862V0.689655C20 0.308769 19.6913 0 19.3104 0Z" fill="#FF5364"/>
<path d="M19.3104 16.5517H17.2414C16.8605 16.5517 16.5518 16.8605 16.5518 17.2414V19.3103C16.5518 19.6912 16.8605 20 17.2414 20H19.3104C19.6913 20 20 19.6912 20 19.3103V17.2414C20 16.8605 19.6913 16.5517 19.3104 16.5517Z" fill="#FF5364"/>
<path d="M11.0344 9.65515H10.3447V8.96549C10.3447 8.77505 10.1904 8.62067 9.99991 8.62067C9.80947 8.62067 9.65509 8.77505 9.65509 8.96549V9.65515H8.96543C8.77499 9.65515 8.62061 9.80954 8.62061 9.99998C8.62061 10.1904 8.77499 10.3448 8.96543 10.3448H9.65509V11.0345C9.65509 11.2249 9.80947 11.3793 9.99991 11.3793C10.1904 11.3793 10.3447 11.2249 10.3447 11.0345V10.3448H11.0344C11.2248 10.3448 11.3792 10.1904 11.3792 9.99998C11.3792 9.80954 11.2248 9.65515 11.0344 9.65515Z" fill="white"/>
</svg>
