<svg width="24" height="28" viewBox="0 0 24 28" fill="none" xmlns="http://www.w3.org/2000/svg">
<path d="M19.923 3.27928C17.8061 1.16463 14.9923 0 12.0001 0C9.00785 0 6.19407 1.16463 4.07712 3.27928C1.96038 5.39383 0.792697 8.20597 0.789307 11.2001C0.791439 13.3797 1.39678 15.4246 2.63999 17.4517C3.71651 19.2071 5.11503 20.7386 6.59564 22.3601C8.04743 23.9499 9.54855 25.5939 10.7474 27.4906C10.9478 27.8077 11.2968 28 11.672 28H12.3282C12.7033 28 13.0523 27.8077 13.2527 27.4906C13.9132 26.4457 14.669 25.4325 15.5635 24.3931C15.9575 23.9352 15.9058 23.2446 15.4479 22.8506C14.9901 22.4566 14.2995 22.5084 13.9054 22.9663C13.1967 23.7899 12.5671 24.6007 11.9981 25.4233C10.8286 23.7517 9.50113 22.298 8.211 20.8851C6.77354 19.3109 5.4367 17.8466 4.47377 16.261L11.1311 9.5597C11.5393 9.20998 12.1405 9.20872 12.5501 9.55675L19.4272 16.4203C18.918 17.2353 18.329 17.9904 17.7236 18.7099C17.3347 19.1721 17.3942 19.8621 17.8563 20.251C18.3185 20.6399 19.0084 20.5805 19.3975 20.1183C21.281 17.8796 23.2071 15.0695 23.2109 11.1978C23.2074 8.20597 22.0398 5.39377 19.923 3.27928ZM18.4533 12.3578V8.69531C18.4533 8.09123 17.9636 7.60156 17.3596 7.60156C16.7555 7.60156 16.2658 8.09123 16.2658 8.69531V10.1746C16.2658 10.1746 14.0397 7.9537 14.0242 7.93986C12.775 6.82784 10.8946 6.83173 9.65016 7.9491C9.63474 7.96299 3.47293 14.1646 3.47293 14.1646C3.15695 13.2493 2.97785 12.2726 2.97681 11.2003C2.98249 6.23066 7.03035 2.1875 12.0001 2.1875C16.9698 2.1875 21.0177 6.23066 21.0234 11.198C21.0223 12.3541 20.8086 13.3973 20.4551 14.3556L18.4533 12.3578ZM12.4377 14.9297C13.0418 14.9297 13.5314 15.4194 13.5314 16.0234V17.1172C13.5314 17.7213 13.0418 18.2109 12.4377 18.2109H11.3439C10.7399 18.2109 10.2502 17.7213 10.2502 17.1172V16.0234C10.2502 15.4194 10.7399 14.9297 11.3439 14.9297H12.4377Z" fill="white"/>
</svg>
