<svg width="12" height="6" viewBox="0 0 12 6" fill="none" xmlns="http://www.w3.org/2000/svg">
<path fill-rule="evenodd" clip-rule="evenodd" d="M4.47568 0.0354568L0.385738 2.52776C0.305473 2.57706 0.255371 2.669 0.255371 2.76924C0.255371 2.86949 0.305473 2.96143 0.385738 3.01072L4.47568 5.50303C4.51453 5.52684 4.55799 5.53847 4.60093 5.53847C4.64541 5.53847 4.68989 5.52573 4.72977 5.50081C4.8085 5.45096 4.85656 5.36013 4.85656 5.26155V0.276934C4.85656 0.178349 4.8085 0.0875183 4.72977 0.0376722C4.65155 -0.0116201 4.55492 -0.0127278 4.47568 0.0354568ZM7.52404 0.0354747L11.614 2.52778C11.6942 2.57707 11.7443 2.66901 11.7443 2.76926C11.7443 2.86951 11.6942 2.96144 11.614 3.01074L7.52404 5.50304C7.48518 5.52686 7.44173 5.53849 7.39878 5.53849C7.3543 5.53849 7.30983 5.52575 7.26995 5.50083C7.19122 5.45098 7.14316 5.36015 7.14316 5.26157V0.276952C7.14316 0.178367 7.19122 0.0875363 7.26995 0.0376901C7.34817 -0.0116022 7.44479 -0.0127099 7.52404 0.0354747Z" fill="white"/>
</svg>
