<svg width="16" height="16" viewBox="0 0 16 16" fill="none" xmlns="http://www.w3.org/2000/svg">
<g clip-path="url(#clip0)">
<path d="M15.6762 14.112L12.2951 10.7303C13.1168 9.58717 13.5687 8.22121 13.5687 6.78335C13.5687 4.97221 12.8636 3.26891 11.5811 1.98756C10.3014 0.706761 8.597 0 6.78475 0C4.97306 0 3.2692 0.705102 1.9884 1.98756C0.707608 3.2678 0.00195312 4.97166 0.00195312 6.78335C0.00195312 8.59505 0.707055 10.2984 1.9884 11.5803C3.2692 12.8611 4.9725 13.5678 6.78475 13.5678C8.22206 13.5678 9.58691 13.1182 10.7311 12.2942L14.1123 15.6759C14.3291 15.8922 14.6111 16 14.8943 16C15.178 16 15.4605 15.8922 15.6762 15.6759C16.1081 15.2435 16.1081 14.5439 15.6762 14.112ZM3.5529 10.0158C2.68908 9.15194 2.21404 8.00332 2.21404 6.7828C2.21404 5.56228 2.68908 4.41477 3.5529 3.55095C4.41617 2.68713 5.56368 2.21153 6.78475 2.21153C8.00582 2.21153 9.1539 2.68713 10.0172 3.55095C10.881 4.41477 11.3566 5.56284 11.3566 6.78335C11.3566 8.00387 10.8815 9.15194 10.0172 10.0163C9.15334 10.8801 8.00638 11.3546 6.78475 11.3546C5.56313 11.3546 4.41506 10.879 3.5529 10.0158Z" fill="url(#paint0_linear)"/>
</g>
<defs>
<linearGradient id="paint0_linear" x1="16.4999" y1="-4.5" x2="-6.166e-05" y2="28.5" gradientUnits="userSpaceOnUse">
<stop stop-color="#4DA1D1"/>
<stop offset="1" stop-color="#6DC5A8"/>
</linearGradient>
<clipPath id="clip0">
<rect width="15.9994" height="16" fill="white"/>
</clipPath>
</defs>
</svg>
